<svg id="Layer_1" data-name="Layer 1" xmlns="http://www.w3.org/2000/svg" viewBox="0 0 110 35"><defs><style>.cls-1{fill:#fff;}</style></defs><path class="cls-1" d="M17.8,31.7l-1.6-4.1,15.4.8L30.9,35ZM21.5,0,0,10.2,3.3,25.5H7.7L7,14.5l.6-.2,2.7,11.2h4.5l-.1-13.4.6-.2,2.3,13.6h4.9L23.6,9.4l.7-.3,1.2,16.4h6.3L34.1,3.1Zm84.9,31.2-6.1-1v-.8l5.9-.2-.1-1.5H98.6l-.4,3.8,6.2,1.1v.7l-6.5.3L97.7,35h9.1ZM48,30.6,47.9,32l2.2.1v1.4l-4.7-.1.2-4.1,6.4-.1-.1-1.5H43.6L42.9,35h9.4l-.2-4.5Zm39.9,2.7V32l4.4-.1V30.5l-4.5-.1V29.1l5.9-.1V27.5h-8L85.5,35h8.4l-.1-1.5ZM81.5,35l-.8-7.4H78.6l-3.1,3.5-3.1-3.5H70.3L69.6,35h2.5l.2-4.8,3.2,3.3,3.2-3.3.2,4.8ZM70.9.5h-5l-.4,22.9h6ZM91.3.5H75.7l-.6,22.9H92.4ZM86.5,18.4l-5.5.2L80.7,5.1l5.8.2ZM110,5.5l-.6-5H94l.2,4.4,4.9.2.5,18.3h6.1L103.9,5.3ZM56.1,23.4h6.6L58.4,13.1l3.4-1.9L59.5.5H42.7l-.6,5,3.8-.1L44.1,23.5H50l.2-5.8,4.2-2.3ZM50.5,5.1,55.3,5l.6,4.6-5.6,2.6ZM63.5,35H66l-2-7.4H58L56,35h2.5l.4-1.9,4.1.1Zm-4.2-3.3.5-2.4,2.4-.1.5,2.4Z" transform="translate(0 0)"/></svg>